<svg xmlns="http://www.w3.org/2000/svg" viewBox="0 0 200 60">
  <path d="M48.2 35.8c-4.3 3.2-10.6 4.9-16 4.9-7.6 0-14.4-2.8-19.6-7.5-.4-.4 0-.9.4-.6 5.7 3.3 12.7 5.3 20 5.3 4.9 0 10.3-1 15.2-3.1.8-.3 1.4.5.6 1zm1.8-2.1c-.5-.7-3.7-.3-5.1-.2-.4 0-.5-.3-.1-.6 2.5-1.8 6.6-1.2 7.1-.7.5.6-.1 4.5-2.4 6.4-.3.3-.7.1-.5-.2.5-1.3 1.6-4.1 1-4.7" fill="#FF9900"/>
  <path d="M45.8 21.1v-1.8c0-.3.2-.5.5-.5h9.2c.3 0 .5.2.5.5v1.5c0 .3-.3.7-.7.1l-4.8 6.8c1.8 0 3.6.2 5.2 1 .4.2.5.5.5.7v1.9c0 .3-.3.6-.6.4-2.9-1.5-6.7-1.7-9.9 0-.3.2-.6-.1-.6-.4v-1.8c0-.3 0-.8.3-1.2l5.5-7.9h-4.8c-.3.1-.5-.1-.5-.4zm-30.3 9.4h-2.8c-.3 0-.5-.2-.5-.5V18.8c0-.3.2-.5.5-.5h2.6c.3 0 .5.2.5.4v1.4h.1c.7-1.8 2-2.7 3.7-2.7 1.8 0 2.9.8 3.7 2.7.7-1.8 2.2-2.7 3.9-2.7 1.2 0 2.5.5 3.2 1.6.9 1.2.7 3 .7 4.6v9.2c0 .3-.2.5-.5.5h-2.8c-.3 0-.5-.2-.5-.5v-7.7c0-.6.1-2.1-.1-2.7-.3-1-.9-1.2-1.8-1.2-.7 0-1.5.5-1.8 1.3s-.2 2.1-.2 2.7v7.7c0 .3-.2.5-.5.5h-2.8c-.3 0-.5-.2-.5-.5v-7.7c0-1.6.3-4-1.9-4-2.2 0-2.1 2.3-2.1 4v7.7c.1.2-.1.5-.4.5zm53.3-12.1c4.1 0 6.4 3.6 6.4 8.1 0 4.4-2.5 7.9-6.4 7.9-4.1 0-6.3-3.6-6.3-8 0-4.5 2.3-8 6.3-8zm0 3c-2.1 0-2.2 2.9-2.2 4.6 0 1.8 0 5.5 2.2 5.5s2.3-3.1 2.3-4.9c0-1.2-.1-2.7-.4-3.8-.3-1-.9-1.4-1.9-1.4zm11.6 9.1h-2.8c-.3 0-.5-.2-.5-.5V18.8c0-.3.2-.5.5-.5h2.6c.2 0 .4.2.5.4v1.7h.1c.8-1.9 1.9-2.8 3.8-2.8 1.2 0 2.5.4 3.2 1.6.7 1.1.7 3 .7 4.3v9.3c0 .3-.2.5-.5.5h-2.8c-.3 0-.5-.2-.5-.5v-8c0-1.6.2-4-1.9-4-2.2 0-2.1 2.3-2.1 4v7.9c.1.3-.1.5-.4.5z" fill="#000000"/>
</svg>
